Coordinates
version=1
nRows=9
nColumns=24
inDegrees=yes

Units are S.I. units (second, meters, Newtons, ...)
Angles are in degrees.

endheader
time	pelvis_tilt	pelvis_list	pelvis_rotation	pelvis_tx	pelvis_ty	pelvis_tz	hip_flexion_r	hip_adduction_r	hip_rotation_r	knee_angle_r	ankle_angle_r	subtalar_angle_r	mtp_angle_r	hip_flexion_l	hip_adduction_l	hip_rotation_l	knee_angle_l	ankle_angle_l	subtalar_angle_l	mtp_angle_l	lumbar_extension	lumbar_bending	lumbar_rotation
      1.41633333	      2.82455261	      6.24131932	     -3.22205466	      0.35871424	      1.01484384	      0.29406942	     13.24129158	     -9.30231282	     -0.83688276	    -73.11188290	    -11.98140122	    -12.76461568	      3.17759529	      4.23723876	     12.28240401	      2.67879038	     -9.71686065	      2.70788468	    -17.37006818	     -6.89290575	    -14.81746658	     -1.05031402	     -2.09008905
      1.42050000	      2.89296749	      6.02427572	     -3.10924516	      0.36352033	      1.01592173	      0.29352844	     13.77814758	     -9.01778404	     -0.91241869	    -72.98899136	    -11.35626273	    -12.83231137	     -0.22216185	      3.54013038	     12.10458572	      3.05262511	     -9.13110404	      2.56501410	    -17.64788358	     -6.84766649	    -14.94111648	     -0.69928326	     -2.38963929
      1.42466667	      2.89677457	      5.79521092	     -3.00782530	      0.36834079	      1.01688595	      0.29307417	     14.37323946	     -8.69700889	     -0.96219654	    -72.79261779	    -10.90709882	    -12.96877153	     -0.28026651	      2.97290590	     11.87631855	      3.10679814	     -8.66246656	      2.61929703	    -17.36280837	     -6.84549046	    -14.96085939	     -0.34764249	     -2.73842386
      1.42883333	      2.91951656	      5.57381314	     -2.89356509	      0.37316225	      1.01783503	      0.29259188	     14.92779400	     -8.39124649	     -1.03263632	    -72.54039352	    -10.41494655	    -13.10659348	     -0.33724869	      2.37385796	     11.66276146	      3.24217296	     -8.17327512	      2.64765738	    -17.21019146	     -6.84486957	    -15.01053040	     -0.02609872	     -2.97589432
      1.43300000	      2.92769032	      5.34434462	     -2.76939667	      0.37796959	      1.01872721	      0.29209526	     15.48018330	     -8.07720481	     -1.11682176	    -72.22993073	     -9.90170069	    -13.24525151	     -0.37622306	      1.79833228	     11.43822187	      3.36933153	     -7.69721526	      2.65074034	    -17.06662013	     -6.84540702	    -15.05432776	      0.31284627	     -3.15341375
      1.43716667	      2.96868797	      5.11652198	     -2.64168810	      0.38278878	      1.01961416	      0.29159475	     15.97715130	     -7.77016286	     -1.21033973	    -71.85766655	     -9.41200042	    -13.34207432	     -0.43914687	      1.17319777	     11.21554028	      3.52971763	     -7.19355913	      2.67447741	    -16.94273885	     -6.84669747	    -15.12106821	      0.65504775	     -3.44732890
      1.44133333	      2.98123501	      4.91138021	     -2.50830378	      0.38763593	      1.02041138	      0.29111138	     16.49053135	     -7.48939134	     -1.31357881	    -71.43921297	     -8.88244646	    -13.45845466	     -0.47495484	      0.59229659	     11.01000735	      3.63122292	     -6.71282915	      2.67562553	    -16.79932138	     -6.84838244	    -15.12869069	      0.92533312	     -3.60969558
      1.44550000	      3.03253132	      4.68389144	     -2.37485977	      0.39245046	      1.02122737	      0.29060244	     16.94236167	     -7.18608083	     -1.41706989	    -70.95527343	     -8.36262702	    -13.51120619	     -0.52923658	     -0.03661390	     10.78290616	      3.77716749	     -6.21976434	      2.69202144	    -16.66159371	     -6.85152427	    -15.22285899	      1.28206468	     -3.86868126
      1.44966667	      3.09975239	      4.48287129	     -2.24269640	      0.39729436	      1.02200124	      0.29011156	     17.36324309	     -6.91873918	     -1.52632514	    -70.42137431	     -7.85307764	    -13.53789748	     -0.62927245	     -0.69664614	     10.58142748	      3.93857936	     -5.69557783	      2.72466462	    -16.54585135	     -6.85900342	    -15.29775206	      1.58432075	     -4.21385966
